<svg xmlns="http://www.w3.org/2000/svg" width="39.581" height="39.58" viewBox="0 0 39.581 39.58">
  <g id="Group_73" data-name="Group 73" transform="translate(-1427.396 -1348.361)">
    <path id="Path_125" data-name="Path 125" d="M8149.61,6915.064h-2.5l0-1.362a3.43,3.43,0,0,0-3.414-3.414H8125.5a3.434,3.434,0,0,0-3.413,3.416l0,1.362h-2.5a3.429,3.429,0,0,1-3.414-3.409v-10.183a3.428,3.428,0,0,1,3.411-3.412h30.028a3.428,3.428,0,0,1,3.414,3.409v10.181a3.429,3.429,0,0,1-3.411,3.414Z" transform="translate(-6687.408 -5532.696)" fill="#7620ff"/>
    <path id="Path_126" data-name="Path 126" d="M8149.076,6890.073h-3.525V6879.21a4.784,4.784,0,0,0-4.775-4.777h-13.423a4.785,4.785,0,0,0-4.775,4.777v10.862h-3.525a4.784,4.784,0,0,0-4.778,4.777v10.177a4.785,4.785,0,0,0,4.778,4.776h1.175a4.782,4.782,0,0,0,4.74,4.208h18.2a4.785,4.785,0,0,0,4.738-4.209h1.175a4.786,4.786,0,0,0,4.778-4.776V6894.85A4.784,4.784,0,0,0,8149.076,6890.073Zm-23.77-10.862a2.069,2.069,0,0,1,2.046-2.048h13.423a2.068,2.068,0,0,1,2.046,2.048v10.862h-17.515Zm17.857,32.073h-18.2a2.066,2.066,0,0,1-1.955-1.479,1.944,1.944,0,0,1-.094-.568v-2.159h0a2.07,2.07,0,0,1,2.049-2.046h18.2a2.068,2.068,0,0,1,2.047,2.046h0v2.159a1.943,1.943,0,0,1-.093.568A2.068,2.068,0,0,1,8143.163,6911.284Zm7.962-6.256a2.072,2.072,0,0,1-2.049,2.048h-1.137a4.787,4.787,0,0,0-4.776-4.776h-18.2a4.788,4.788,0,0,0-4.778,4.778h-1.137a2.073,2.073,0,0,1-2.049-2.048V6894.85a2.072,2.072,0,0,1,2.049-2.049h30.025a2.071,2.071,0,0,1,2.049,2.049Z" transform="translate(-6686.876 -5526.072)" fill="#0b093b"/>
  </g>
</svg>
